<svg width="40" height="40" version="1.1" viewBox="0 0 40 40" xmlns="http://www.w3.org/2000/svg">
    <g transform="matrix(.75 0 0 .75 2 2)">
        <path d="m6-9.14e-6h36c3.324 0 6 2.676 6 6v36c0 3.324-2.676 6-6 6h-36c-3.324 0-6-2.676-6-6v-36c0-3.324 2.676-6 6-6z" fill="#1d99f3"/>
        <path d="m26.817 6.058-5.9774 0.57222v24.613l5.9142-0.8904v-10.494l7.9499 11.639 6.2324-1.972-8.1405-11.194 8.2042-10.558-6.3594-1.4621-7.8865 10.557zm-13.549 5.9979c-0.0675 0.0071-0.13269 0.03685-0.18338 0.08773l-2.346 2.3456c-0.09864 0.09893-0.11722 0.25231-0.0445 0.37209l2.7467 4.5238c-0.48717 0.81901-0.87762 1.7021-1.1567 2.6336l-5.0426 1.0489c-0.1403 0.029055-0.24138 0.15337-0.24138 0.29734v3.3173c0 0.14031 0.095983 0.26181 0.23117 0.29448l4.8943 1.1963c0.261 1.0789 0.66544 2.1016 1.2 3.0416l-2.833 4.32c-0.07904 0.12075-0.06252 0.27978 0.0396 0.38147l2.3452 2.3456c0.09864 0.09836 0.25262 0.11764 0.37291 0.04535l4.4393-2.6961c0.87201 0.50319 1.8124 0.89918 2.8063 1.1677l1.0358 4.98c0.02915 0.14116 0.15388 0.2414 0.29693 0.2414h3.3177c0.13948 0 0.26119-0.09524 0.29448-0.23201l1.22-4.9903c1.0246-0.2765 1.9935-0.68863 2.8869-1.2147l4.3747 2.8684c0.12029 0.07923 0.27938 0.06335 0.38148-0.03869l2.346-2.3456c0.09924-0.09921 0.11701-0.25261 0.04409-0.37207l-1.597-2.632-0.51668 0.16339c-0.07532 0.02381-0.15745-0.0043-0.20176-0.06987 0 0-1.0186-1.4912-2.3342-3.4166-1.5727 3.0779-4.7723 5.1864-8.4672 5.1864-5.2496 0-9.5055-4.2561-9.5055-9.5059 0-3.8619 2.3035-7.1832 5.6102-8.6711v-2.4523c-0.60183 0.21054-1.1836 0.4644-1.7362 0.76542-4.04e-4 -3.69e-4 -8.09e-4 -0.0014-0.0024-0.0028l-4.4777-2.9368c-0.0603-0.0394-0.1302-0.05513-0.19767-0.04819z" fill="#fcfcfc"/>
    </g>
</svg>
